<?xml version="1.0" encoding="UTF-8"?><svg id="Camada_1" xmlns="http://www.w3.org/2000/svg" viewBox="0 0 64 64"><defs><style>.cls-1{fill:#201751;}.cls-2{fill:#fe3b1f;}</style></defs><g><path class="cls-2" d="M32.62,38.59h-.78v-1.26h-1.34v1.26h-.78v-3.18h.78v1.24h1.34v-1.24h.78v3.18Z"/><path class="cls-2" d="M35.92,35.82c.33,.32,.49,.72,.49,1.18s-.16,.85-.49,1.18c-.33,.32-.73,.48-1.2,.48s-.88-.16-1.2-.48c-.33-.32-.49-.71-.49-1.18s.16-.86,.49-1.18c.33-.32,.73-.48,1.2-.48s.88,.16,1.2,.48Zm-.55,1.86c.17-.18,.26-.4,.26-.67s-.09-.5-.26-.68c-.17-.18-.39-.27-.65-.27s-.48,.09-.65,.27c-.17,.18-.26,.41-.26,.68s.09,.49,.26,.67c.17,.18,.39,.27,.65,.27s.48-.09,.65-.27Z"/><path class="cls-2" d="M40.5,38.59h-.76v-1.59l-.83,1.59h-.48l-.84-1.6v1.6h-.76v-3.18h.77l1.07,1.97,1.07-1.97h.77v3.18Z"/><path class="cls-2" d="M43.54,38.59h-2.48v-3.18h2.47v.67h-1.68v.6h1.54v.64h-1.54v.6h1.7v.67Z"/><path class="cls-2" d="M46.31,38.2c.22-.15,.38-.34,.48-.59l.23,.06c-.11,.3-.29,.54-.56,.72-.27,.18-.58,.26-.93,.26-.46,0-.85-.16-1.16-.48-.32-.32-.48-.71-.48-1.17s.16-.85,.48-1.17c.32-.32,.7-.48,1.16-.48,.35,0,.67,.09,.93,.26,.27,.17,.45,.41,.56,.7l-.23,.07c-.09-.25-.25-.45-.48-.59s-.49-.22-.79-.22c-.39,0-.72,.14-1,.41-.27,.27-.41,.61-.41,1.01s.14,.74,.41,1.01c.27,.27,.6,.41,1,.41,.3,0,.56-.07,.78-.22Z"/><path class="cls-2" d="M47.89,36.88h1.9v.21h-1.9v1.27h2.04v.22h-2.28v-3.18h2.28v.22h-2.04v1.26Z"/><path class="cls-2" d="M53.19,38.59h-.21l-2.24-2.77v2.77h-.24v-3.18h.21l2.24,2.79v-2.79h.24v3.18Z"/><path class="cls-2" d="M55.17,35.62v2.97h-.25v-2.97h-1.24v-.22h2.73v.22h-1.24Z"/><path class="cls-2" d="M57.14,36.88h1.9v.21h-1.9v1.27h2.04v.22h-2.28v-3.18h2.28v.22h-2.04v1.26Z"/><path class="cls-2" d="M61.99,38.59l-1.31-1.46h-.7v1.46h-.24v-3.18h1.45c.3,0,.54,.08,.72,.24s.27,.37,.27,.62-.09,.47-.27,.62c-.18,.16-.42,.24-.72,.24h-.2l1.32,1.46h-.31Zm-.8-1.68c.22,0,.41-.06,.54-.18,.14-.12,.21-.27,.21-.47s-.07-.35-.21-.47c-.14-.12-.32-.18-.54-.18h-1.21v1.29h1.21Z"/></g><g><path class="cls-1" d="M16.59,33.25h-1.89v-.57c-.47,.5-1.08,.74-1.82,.74-.69,0-1.25-.23-1.67-.68-.42-.45-.63-1.05-.63-1.79v-3.64h1.88v3.24c0,.35,.09,.63,.28,.84s.43,.32,.73,.32c.39,0,.69-.14,.9-.41,.22-.27,.32-.69,.32-1.25v-2.75h1.89v5.93Z"/><path class="cls-1" d="M22.09,27.28l-.08,1.89h-.34c-1.36,0-2.04,.74-2.04,2.22v1.85h-1.89v-5.93h1.89v1.13c.49-.81,1.17-1.22,2.04-1.22,.16,0,.3,.02,.43,.05Z"/><path class="cls-1" d="M28.58,33.25h-1.89v-.57c-.47,.5-1.08,.74-1.82,.74-.69,0-1.25-.23-1.67-.68-.42-.45-.63-1.05-.63-1.79v-3.64h1.88v3.24c0,.35,.09,.63,.28,.84,.19,.22,.43,.32,.73,.32,.39,0,.69-.14,.9-.41,.22-.27,.32-.69,.32-1.25v-2.75h1.89v5.93Z"/><path class="cls-1" d="M35.1,27.82c.42,.45,.63,1.05,.63,1.79v3.64h-1.88v-3.24c0-.35-.09-.63-.28-.84s-.43-.32-.73-.32c-.39,0-.69,.14-.9,.41-.22,.27-.32,.69-.32,1.25v2.75h-1.89v-5.93h1.89v.57c.47-.5,1.08-.74,1.82-.74,.69,0,1.25,.23,1.67,.68Z"/><path class="cls-1" d="M42.66,30.77h-4.35c.08,.35,.23,.63,.46,.84,.23,.2,.5,.31,.82,.31,.59,0,1.01-.23,1.26-.69l1.68,.34c-.25,.61-.63,1.08-1.14,1.39-.51,.31-1.11,.47-1.8,.47-.87,0-1.61-.29-2.22-.88-.61-.59-.91-1.34-.91-2.26s.3-1.67,.91-2.26c.61-.59,1.35-.89,2.23-.89s1.58,.29,2.16,.86c.58,.57,.88,1.33,.9,2.28v.48Zm-3.83-1.84c-.24,.17-.4,.39-.48,.69h2.45c-.09-.31-.24-.54-.45-.7-.21-.16-.46-.24-.74-.24s-.53,.08-.77,.25Z"/><path class="cls-1" d="M48.85,27.82c.42,.45,.63,1.05,.63,1.79v3.64h-1.88v-3.24c0-.35-.09-.63-.28-.84s-.43-.32-.73-.32c-.39,0-.69,.14-.9,.41-.22,.27-.32,.69-.32,1.25v2.75h-1.89v-5.93h1.89v.57c.47-.5,1.08-.74,1.82-.74,.69,0,1.25,.23,1.67,.68Z"/><path class="cls-1" d="M52.04,31.32c.08,.46,.43,.7,1.05,.7,.24,0,.42-.05,.56-.14s.21-.2,.21-.34c0-.22-.2-.37-.59-.44l-1.2-.24c-1.15-.21-1.72-.79-1.72-1.72,0-.61,.24-1.09,.71-1.46,.47-.37,1.09-.55,1.84-.55s1.32,.15,1.8,.46c.48,.31,.77,.72,.89,1.24l-1.72,.34c-.03-.2-.14-.36-.31-.5-.18-.13-.4-.2-.68-.2-.24,0-.41,.05-.51,.14-.11,.09-.16,.2-.16,.32,0,.21,.15,.35,.45,.41l1.39,.28c.54,.12,.95,.33,1.23,.64,.28,.31,.41,.69,.41,1.14,0,.64-.25,1.13-.74,1.48-.5,.35-1.15,.52-1.95,.52-.75,0-1.38-.14-1.88-.43-.51-.29-.81-.72-.9-1.29l1.84-.38Z"/><path class="cls-1" d="M62.31,30.77h-4.35c.08,.35,.23,.63,.46,.84,.23,.2,.5,.31,.82,.31,.59,0,1.01-.23,1.26-.69l1.68,.34c-.25,.61-.63,1.08-1.14,1.39-.51,.31-1.11,.47-1.8,.47-.87,0-1.61-.29-2.22-.88-.61-.59-.91-1.34-.91-2.26s.3-1.67,.91-2.26c.61-.59,1.35-.89,2.23-.89s1.58,.29,2.16,.86c.58,.57,.88,1.33,.9,2.28v.48Zm-3.83-1.84c-.24,.17-.4,.39-.48,.69h2.45c-.09-.31-.24-.54-.45-.7-.21-.16-.46-.24-.74-.24s-.53,.08-.77,.25Z"/></g><g><polygon class="cls-2" points="1.69 29.75 1.69 25.34 6.11 25.34 1.69 29.75"/><path class="cls-1" d="M6.11,25.34v1.92h1.34v2.61c0,1.04-.85,1.89-1.89,1.89s-1.89-.85-1.89-1.89v-.11H1.69v.06c0,2.12,1.73,3.85,3.85,3.85h.04c2.12,0,3.85-1.73,3.85-3.85v-4.47h-3.33Z"/></g></svg>