<?xml version="1.0" encoding="UTF-8"?><svg id="Camada_1" xmlns="http://www.w3.org/2000/svg" viewBox="0 0 128 128"><defs><style>.cls-1{fill:#fff;}.cls-2{fill:#fe3b1f;}</style></defs><g><path class="cls-2" d="M65.24,77.24h-1.57v-2.53h-2.69v2.53h-1.57v-6.4h1.57v2.49h2.69v-2.49h1.57v6.4Z"/><path class="cls-2" d="M71.88,71.67c.66,.65,.99,1.44,.99,2.38s-.33,1.72-.99,2.36c-.66,.65-1.47,.97-2.42,.97s-1.76-.32-2.42-.97c-.66-.65-.99-1.43-.99-2.36s.33-1.73,.99-2.38c.66-.65,1.47-.97,2.42-.97s1.76,.32,2.42,.97Zm-1.11,3.73c.35-.36,.52-.81,.52-1.35s-.18-1-.52-1.37c-.35-.36-.79-.54-1.31-.54s-.96,.18-1.31,.54c-.35,.36-.52,.82-.52,1.37s.18,.99,.52,1.35c.35,.36,.79,.54,1.31,.54s.96-.18,1.31-.54Z"/><path class="cls-2" d="M81.07,77.24h-1.53v-3.19l-1.67,3.19h-.97l-1.68-3.21v3.21h-1.53v-6.4h1.55l2.15,3.96,2.15-3.96h1.54v6.4Z"/><path class="cls-2" d="M87.17,77.24h-4.98v-6.4h4.95v1.36h-3.38v1.2h3.1v1.28h-3.1v1.2h3.41v1.36Z"/><path class="cls-2" d="M92.74,76.46c.45-.29,.77-.69,.96-1.19l.47,.11c-.22,.6-.59,1.08-1.13,1.44-.53,.35-1.16,.53-1.87,.53-.92,0-1.7-.32-2.34-.96-.64-.64-.95-1.42-.95-2.34s.32-1.7,.95-2.34c.64-.64,1.42-.96,2.34-.96,.71,0,1.34,.18,1.87,.53,.53,.35,.91,.82,1.13,1.41l-.46,.14c-.18-.5-.5-.9-.95-1.19s-.98-.44-1.58-.44c-.79,0-1.46,.28-2,.83-.54,.55-.82,1.23-.82,2.03s.27,1.48,.82,2.03c.54,.55,1.21,.83,2,.83,.6,0,1.12-.15,1.57-.44Z"/><path class="cls-2" d="M95.93,73.81h3.81v.43h-3.81v2.56h4.1v.44h-4.58v-6.4h4.58v.44h-4.1v2.53Z"/><path class="cls-2" d="M106.57,77.24h-.43l-4.5-5.57v5.57h-.49v-6.4h.43l4.51,5.6v-5.6h.48v6.4Z"/><path class="cls-2" d="M110.54,71.28v5.96h-.5v-5.96h-2.49v-.44h5.48v.44h-2.49Z"/><path class="cls-2" d="M114.5,73.81h3.81v.43h-3.81v2.56h4.1v.44h-4.58v-6.4h4.58v.44h-4.1v2.53Z"/><path class="cls-2" d="M124.25,77.24l-2.63-2.94h-1.4v2.94h-.49v-6.4h2.91c.6,0,1.08,.16,1.44,.47s.54,.73,.54,1.26-.18,.94-.54,1.26c-.36,.32-.84,.47-1.44,.47h-.41l2.65,2.94h-.63Zm-1.61-3.37c.45,0,.82-.12,1.09-.36,.28-.24,.42-.55,.42-.94s-.14-.7-.42-.94c-.28-.24-.64-.35-1.09-.35h-2.42v2.59h2.42Z"/></g><g><path class="cls-1" d="M33.05,66.51h-3.8v-1.14c-.95,1-2.17,1.49-3.65,1.49-1.39,0-2.51-.45-3.36-1.36-.85-.91-1.27-2.11-1.27-3.6v-7.31h3.77v6.5c0,.7,.19,1.26,.57,1.7s.87,.65,1.47,.65c.78,0,1.38-.27,1.82-.82,.44-.55,.65-1.38,.65-2.5v-5.53h3.8v11.91Z"/><path class="cls-1" d="M44.1,54.52l-.17,3.8h-.69c-2.74,0-4.11,1.49-4.11,4.46v3.73h-3.8v-11.91h3.8v2.28c.98-1.63,2.35-2.44,4.11-2.44,.32,0,.6,.03,.85,.09Z"/><path class="cls-1" d="M57.13,66.51h-3.8v-1.14c-.95,1-2.17,1.49-3.65,1.49-1.39,0-2.51-.45-3.36-1.36-.85-.91-1.27-2.11-1.27-3.6v-7.31h3.77v6.5c0,.7,.19,1.26,.57,1.7,.38,.43,.87,.65,1.47,.65,.78,0,1.38-.27,1.82-.82,.43-.55,.65-1.38,.65-2.5v-5.53h3.8v11.91Z"/><path class="cls-1" d="M70.24,55.6c.85,.91,1.27,2.11,1.27,3.6v7.31h-3.77v-6.5c0-.7-.19-1.26-.57-1.7s-.87-.65-1.47-.65c-.78,0-1.38,.27-1.82,.82-.44,.55-.65,1.38-.65,2.5v5.53h-3.8v-11.91h3.8v1.14c.95-1,2.17-1.49,3.65-1.49,1.39,0,2.51,.45,3.36,1.36Z"/><path class="cls-1" d="M85.42,61.52h-8.73c.16,.71,.47,1.27,.93,1.68,.46,.41,1,.62,1.64,.62,1.19,0,2.03-.46,2.54-1.38l3.37,.69c-.51,1.23-1.27,2.16-2.29,2.79-1.02,.62-2.23,.94-3.62,.94-1.76,0-3.24-.59-4.46-1.77-1.22-1.18-1.83-2.69-1.83-4.54s.61-3.35,1.83-4.53c1.22-1.19,2.71-1.78,4.48-1.78s3.17,.58,4.34,1.73c1.17,1.15,1.77,2.68,1.8,4.58v.97Zm-7.69-3.7c-.47,.33-.8,.79-.97,1.38h4.91c-.17-.62-.47-1.08-.9-1.4-.43-.32-.93-.47-1.49-.47s-1.07,.17-1.54,.5Z"/><path class="cls-1" d="M97.84,55.6c.85,.91,1.27,2.11,1.27,3.6v7.31h-3.77v-6.5c0-.7-.19-1.26-.57-1.7s-.87-.65-1.47-.65c-.78,0-1.38,.27-1.82,.82-.44,.55-.65,1.38-.65,2.5v5.53h-3.8v-11.91h3.8v1.14c.95-1,2.17-1.49,3.65-1.49,1.39,0,2.51,.45,3.36,1.36Z"/><path class="cls-1" d="M104.26,62.64c.16,.93,.86,1.4,2.11,1.4,.47,0,.85-.09,1.13-.27s.42-.41,.42-.68c0-.44-.4-.74-1.19-.88l-2.42-.47c-2.31-.43-3.46-1.58-3.46-3.46,0-1.22,.47-2.2,1.42-2.93,.95-.74,2.18-1.1,3.7-1.1s2.66,.31,3.62,.93c.96,.62,1.55,1.45,1.79,2.49l-3.46,.69c-.06-.4-.27-.73-.63-1-.36-.27-.81-.4-1.36-.4-.47,0-.82,.09-1.03,.27-.21,.18-.32,.4-.32,.65,0,.43,.3,.7,.9,.83l2.8,.57c1.09,.24,1.91,.67,2.47,1.29,.55,.62,.83,1.39,.83,2.29,0,1.28-.5,2.27-1.49,2.97-1,.7-2.3,1.04-3.92,1.04-1.5,0-2.76-.29-3.78-.87-1.02-.58-1.63-1.44-1.82-2.6l3.7-.76Z"/><path class="cls-1" d="M124.88,61.52h-8.73c.16,.71,.47,1.27,.93,1.68,.46,.41,1,.62,1.64,.62,1.19,0,2.03-.46,2.54-1.38l3.37,.69c-.51,1.23-1.27,2.16-2.29,2.79-1.02,.62-2.23,.94-3.62,.94-1.76,0-3.24-.59-4.46-1.77-1.22-1.18-1.83-2.69-1.83-4.54s.61-3.35,1.83-4.53c1.22-1.19,2.71-1.78,4.48-1.78s3.17,.58,4.34,1.73c1.17,1.15,1.77,2.68,1.8,4.58v.97Zm-7.69-3.7c-.47,.33-.8,.79-.97,1.38h4.91c-.17-.62-.47-1.08-.9-1.4-.43-.32-.93-.47-1.49-.47s-1.07,.17-1.54,.5Z"/></g><g><polygon class="cls-2" points="3.12 59.49 3.12 50.62 11.99 50.62 3.12 59.49"/><path class="cls-1" d="M11.99,50.62v3.85h2.7v5.24c0,2.1-1.71,3.8-3.8,3.8s-3.8-1.71-3.8-3.8v-.23H3.12v.12c0,4.27,3.47,7.74,7.74,7.74h.08c4.27,0,7.74-3.47,7.74-7.74v-8.99h-6.69Z"/></g></svg>